:SAMPLES-PER-SECOND 30
:FULLY-SPECIFIED
:DEGREES
489
root  -3.19409 40.9579 0.490819 -7.19434 -85.6331 10.9602
RightUpLeg  2.0945 -2.29624 -2.79154
RightLeg  -4.08335 -22.6015 2.11001
RightFoot  -0.163742 -0.357603 3.62414
RightToes  -3.11842e-008 1.75238e-005 3.56266e-009
Spine  0.0997534 5.81324 7.52073
Spine1  -10.417 6.74359 -14.6338
HEad  -12.4217 -21.2346 7.51984
LeftShoulder1  2.7214 -5.02522 -25.7681
LeftArm  -9.79143 41.3631 -44.9657
LeftForeArm  135.747 -61.4238 -158.647
LeftHand  0.184821 -4.41397 -1.90719
RightShoulder  2.72282 6.51224 20.8686
RightArm  -44.0286 36.9423 33.8763
RightForeArm  -67.4916 30.0067 8.77914
RightHand  -0.112201 -3.78149 -6.9566
LeftUpLeg  0.0053746 -0.167352 1.23079
LeftLeg  -4.52424 11.5317 -1.34686
LeftFoot  1.51482 0.236467 -2.24986
LeftToes  4.7713e-008 1.46693e-008 1.32589e-009
490
root  -3.18714 40.959 0.482493 -6.20465 -85.5166 10.1722
RightUpLeg  1.96745 -2.14448 -2.68402
RightLeg  -4.2852 -22.8848 2.13618
RightFoot  -0.0816526 -0.366099 3.74866
RightToes  -3.11842e-008 1.75238e-005 3.56266e-009
Spine  0.3523 5.72656 7.87846
Spine1  -10.8666 6.61963 -14.9395
HEad  -12.3364 -21.0677 7.07226
LeftShoulder1  2.77064 -5.1581 -25.8517
LeftArm  -9.59154 41.1441 -44.1591
LeftForeArm  135.894 -61.5298 -158.571
LeftHand  0.162537 -4.60374 -1.59794
RightShoulder  2.59095 6.25004 20.2005
RightArm  -44.4111 37.9348 33.1429
RightForeArm  -68.3464 31.8261 9.28191
RightHand  -0.111589 -3.76448 -6.86429
LeftUpLeg  -0.280608 -0.19253 1.27219
LeftLeg  -4.44783 11.4278 -1.29396
LeftFoot  1.53128 0.237168 -2.25358
LeftToes  4.7713e-008 1.46693e-008 1.32589e-009
491
root  -3.18377 40.9597 0.478736 -5.93835 -85.4358 10.0222
RightUpLeg  1.86192 -2.09093 -2.64019
RightLeg  -4.33489 -23.0679 2.13192
RightFoot  -0.0359114 -0.356216 3.59538
RightToes  -3.11842e-008 1.75238e-005 3.56266e-009
Spine  0.606622 5.56074 8.52726
Spine1  -11.247 6.47074 -15.8428
HEad  -12.5402 -20.7243 7.24224
LeftShoulder1  2.70411 -5.05761 -25.4329
LeftArm  -9.51572 40.9715 -43.9372
LeftForeArm  136.025 -61.6848 -158.453
LeftHand  0.166735 -4.55403 -1.65877
RightShoulder  2.54333 6.07114 20.1986
RightArm  -45.3976 38.6717 32.8818
RightForeArm  -67.794 33.565 9.776
RightHand  -0.112567 -3.53243 -6.07222
LeftUpLeg  -0.380883 -0.203187 1.28868
LeftLeg  -4.5377 11.3447 -1.32043
LeftFoot  1.60928 0.237187 -2.2469
LeftToes  4.7713e-008 1.46693e-008 1.32589e-009
492
root  -3.18873 40.9601 0.468031 -5.79446 -85.3505 9.91965
RightUpLeg  1.83804 -2.07128 -2.6214
RightLeg  -4.34635 -23.1765 2.13934
RightFoot  -0.0434789 -0.353448 3.5576
RightToes  -3.11842e-008 1.75238e-005 3.56266e-009
Spine  0.63971 5.43651 8.98176
Spine1  -11.2378 6.39118 -16.4914
HEad  -11.9763 -20.9948 7.28341
LeftShoulder1  2.67266 -4.96699 -25.3977
LeftArm  -9.54973 40.6212 -43.7275
LeftForeArm  135.935 -61.8279 -158.324
LeftHand  0.159764 -4.57734 -1.57185
RightShoulder  2.56668 6.10205 20.3676
RightArm  -45.9089 38.907 32.4877
RightForeArm  -67.1147 34.3391 10.0033
RightHand  -0.0841889 -3.89479 -5.15307
LeftUpLeg  -0.444373 -0.204643 1.29998
LeftLeg  -4.51366 11.2897 -1.31179
LeftFoot  1.62761 0.242968 -2.33007
LeftToes  4.7713e-008 1.46693e-008 1.32589e-009
493
root  -3.20489 40.9599 0.449798 -6.53033 -85.2138 10.6371
RightUpLeg  1.86885 -2.19374 -2.70783
RightLeg  -4.27562 -23.1815 2.17961
RightFoot  -0.111723 -0.346165 3.45374
RightToes  -3.11842e-008 1.75238e-005 3.56266e-009
Spine  0.664773 5.35893 8.89994
Spine1  -11.2839 6.32271 -16.595
HEad  -11.4428 -21.0876 7.40183
LeftShoulder1  2.68941 -4.96254 -25.6209
LeftArm  -9.68234 40.3855 -43.5282
LeftForeArm  135.458 -61.7876 -158.316
LeftHand  0.14655 -4.38935 -1.45786
RightShoulder  2.54418 6.06 20.2411
RightArm  -46.0465 38.4472 33.2258
RightForeArm  -66.0687 34.3675 10.007
RightHand  -0.0605672 -4.47826 -4.96909
LeftUpLeg  -0.375134 -0.245174 1.23037
LeftLeg  -4.59812 11.2399 -1.31988
LeftFoot  1.67543 0.238136 -2.24843
LeftToes  4.7713e-008 1.46693e-008 1.32589e-009
494
root  -3.22433 40.9583 0.42973 -6.44226 -85.1101 10.5122
RightUpLeg  1.90284 -2.18243 -2.67405
RightLeg  -4.15892 -23.2766 2.13019
RightFoot  -0.222339 -0.349016 3.50839
RightToes  -3.11842e-008 1.75238e-005 3.56266e-009
Spine  0.338011 5.3567 8.88063
Spine1  -10.9531 6.36411 -16.7573
HEad  -10.8923 -20.9265 7.727
LeftShoulder1  2.65828 -4.87432 -25.583
LeftArm  -9.68485 40.0241 -43.5666
LeftForeArm  135.355 -61.8218 -158.277
LeftHand  0.142555 -4.27465 -1.43595
RightShoulder  2.60372 6.17108 20.5746
RightArm  -44.5406 37.5142 33.7361
RightForeArm  -65.9895 33.5935 9.77768
RightHand  -0.0861907 -4.04138 -5.9233
LeftUpLeg  -0.345152 -0.218429 1.26122
LeftLeg  -4.53809 11.0886 -1.29871
LeftFoot  1.6578 0.238794 -2.25242
LeftToes  4.7713e-008 1.46693e-008 1.32589e-009
495
root  -3.25504 40.9551 0.407005 -6.4285 -84.9825 10.434
RightUpLeg  1.98529 -2.22018 -2.66522
RightLeg  -4.04424 -23.3511 2.11078
RightFoot  -0.323506 -0.349999 3.53507
RightToes  -3.11842e-008 1.75238e-005 3.56266e-009
Spine  -0.204126 5.43877 8.33004
Spine1  -10.3173 6.47235 -16.1072
HEad  -10.3928 -20.6387 7.28102
LeftShoulder1  2.62162 -4.68813 -25.8659
LeftArm  -9.67966 39.5305 -44.0522
LeftForeArm  135.872 -62.119 -158.069
LeftHand  0.136531 -4.60093 -1.29684
RightShoulder  2.65088 6.26708 20.8066
RightArm  -42.4242 36.4884 33.9648
RightForeArm  -65.9021 31.6767 9.23021
RightHand  -0.0578309 -4.62884 -5.70078
LeftUpLeg  -0.264116 -0.177188 1.28931
LeftLeg  -4.4846 10.9743 -1.29817
LeftFoot  1.59928 0.240033 -2.26574
LeftToes  4.7713e-008 1.46693e-008 1.32589e-009
496
root  -3.30093 40.9514 0.398305 -6.87259 -85.0904 10.6262
RightUpLeg  2.34527 -2.23781 -2.64918
RightLeg  -4.09188 -23.2334 2.10629
RightFoot  -0.400785 -0.349366 3.53745
RightToes  -3.11842e-008 1.75238e-005 3.56266e-009
Spine  -0.554832 5.57273 8.08445
Spine1  -9.682 6.65769 -15.7751
HEad  -9.78133 -20.7315 6.75952
LeftShoulder1  2.59938 -4.59703 -25.9542
LeftArm  -10.136 39.3854 -44.8947
LeftForeArm  135.588 -62.0902 -158.068
LeftHand  0.151445 -4.56212 -1.47843
RightShoulder  2.74697 6.53427 21.059
RightArm  -41.266 35.781 34.2495
RightForeArm  -65.8857 29.2718 8.57527
RightHand  -0.0605494 -4.62949 -6.11955
LeftUpLeg  0.146643 -0.0889934 1.32416
LeftLeg  -4.58805 10.9338 -1.33197
LeftFoot  1.52261 0.243095 -2.30769
LeftToes  4.7713e-008 1.46693e-008 1.32589e-009
